HIERARCHY
ROOT hip
{
  OFFSET 0 0 0
  CHANNELS 6 Xposition Yposition Zposition Zrotation Yrotation Xrotation
  JOINT abdomen
  {
    OFFSET 0 20.6881 -0.73152
    CHANNELS 3 Zrotation Xrotation Yrotation
    JOINT chest
    {
      OFFSET 0 11.7043 -0.48768
      CHANNELS 3 Zrotation Xrotation Yrotation
      JOINT neck
      {
        OFFSET 0 22.1894 -2.19456
        CHANNELS 3 Zrotation Xrotation Yrotation
        JOINT head
        {
          OFFSET -0.24384 7.07133 1.2192
          CHANNELS 3 Zrotation Xrotation Yrotation
          JOINT leftEye
          {
            OFFSET 4.14528 8.04674 8.04672
            CHANNELS 3 Zrotation Xrotation Yrotation
            End Site
            {
              OFFSET 1 0 0
            }
          }
          JOINT rightEye
          {
            OFFSET -3.6576 8.04674 8.04672
            CHANNELS 3 Zrotation Xrotation Yrotation
            End Site
            {
              OFFSET 1 0 0
            }
          }
        }
      }
      JOINT rCollar
      {
        OFFSET -2.68224 19.2634 -4.8768
        CHANNELS 3 Zrotation Xrotation Yrotation
        JOINT rShldr
        {
          OFFSET -8.77824 -1.95073 1.46304
          CHANNELS 3 Zrotation Xrotation Yrotation
          JOINT rForeArm
          {
            OFFSET -28.1742 -1.7115 0.48768
            CHANNELS 3 Zrotation Xrotation Yrotation
            JOINT rHand
            {
              OFFSET -22.5879 0.773209 7.07136
              CHANNELS 3 Zrotation Xrotation Yrotation
              JOINT rThumb1
              {
                OFFSET -1.2192 -0.487915 3.41376
                CHANNELS 3 Zrotation Xrotation Yrotation
                JOINT rThumb2
                {
                  OFFSET -3.37035 -0.52449 3.41376
                  CHANNELS 3 Zrotation Xrotation Yrotation
                  End Site
                  {
                    OFFSET -1.78271 -1.18214 1.43049
                  }
                }
              }
              JOINT rIndex1
              {
                OFFSET -7.75947 0.938293 5.60832
                CHANNELS 3 Zrotation Xrotation Yrotation
                JOINT rIndex2
                {
                  OFFSET -2.54057 -0.884171 1.56538
                  CHANNELS 3 Zrotation Xrotation Yrotation
                  End Site
                  {
                    OFFSET -1.62519 -0.234802 1.16502
                  }
                }
              }
              JOINT rMid1
              {
                OFFSET -8.24714 1.18213 3.41376
                CHANNELS 3 Zrotation Xrotation Yrotation
                JOINT rMid2
                {
                  OFFSET -3.10165 -0.590103 1.0647
                  CHANNELS 3 Zrotation Xrotation Yrotation
                  End Site
                  {
                    OFFSET -2.48547 -0.328903 0.83742
                  }
                }
              }
              JOINT rRing1
              {
                OFFSET -8.82822 0.546677 1.51678
                CHANNELS 3 Zrotation Xrotation Yrotation
                JOINT rRing2
                {
                  OFFSET -2.60934 -0.819778 -0.0198488
                  CHANNELS 3 Zrotation Xrotation Yrotation
                  End Site
                  {
                    OFFSET -2.33842 -0.294052 0.168128
                  }
                }
              }
              JOINT rPinky1
              {
                OFFSET -8.27202 -0.0477905 -0.4584
                CHANNELS 3 Zrotation Xrotation Yrotation
                JOINT rPinky2
                {
                  OFFSET -1.82734 -0.647385 -0.700984
                  CHANNELS 3 Zrotation Xrotation Yrotation
                  End Site
                  {
                    OFFSET -1.69225 -0.51767 -0.607171
                  }
                }
              }
            }
          }
        }
      }
      JOINT lCollar
      {
        OFFSET 2.68224 19.2634 -4.8768
        CHANNELS 3 Zrotation Xrotation Yrotation
        JOINT lShldr
        {
          OFFSET 8.77824 -1.95073 1.46304
          CHANNELS 3 Zrotation Xrotation Yrotation
          JOINT lForeArm
          {
            OFFSET 28.1742 -1.7115 0.48768
            CHANNELS 3 Zrotation Xrotation Yrotation
            JOINT lHand
            {
              OFFSET 22.5879 0.773209 7.07136
              CHANNELS 3 Zrotation Xrotation Yrotation
              JOINT lThumb1
              {
                OFFSET 1.2192 -0.487915 3.41376
                CHANNELS 3 Zrotation Xrotation Yrotation
                JOINT lThumb2
                {
                  OFFSET 3.37035 -0.52449 3.41376
                  CHANNELS 3 Zrotation Xrotation Yrotation
                  End Site
                  {
                    OFFSET 1.78271 -1.18214 1.43049
                  }
                }
              }
              JOINT lIndex1
              {
                OFFSET 7.75947 0.938293 5.60832
                CHANNELS 3 Zrotation Xrotation Yrotation
                JOINT lIndex2
                {
                  OFFSET 2.54057 -0.884171 1.56538
                  CHANNELS 3 Zrotation Xrotation Yrotation
                  End Site
                  {
                    OFFSET 1.62519 -0.234802 1.16502
                  }
                }
              }
              JOINT lMid1
              {
                OFFSET 8.24714 1.18213 3.41376
                CHANNELS 3 Zrotation Xrotation Yrotation
                JOINT lMid2
                {
                  OFFSET 3.10165 -0.590103 1.0647
                  CHANNELS 3 Zrotation Xrotation Yrotation
                  End Site
                  {
                    OFFSET 2.48547 -0.328903 0.83742
                  }
                }
              }
              JOINT lRing1
              {
                OFFSET 8.82822 0.546677 1.51678
                CHANNELS 3 Zrotation Xrotation Yrotation
                JOINT lRing2
                {
                  OFFSET 2.60934 -0.819778 -0.0198488
                  CHANNELS 3 Zrotation Xrotation Yrotation
                  End Site
                  {
                    OFFSET 2.33842 -0.294052 0.168128
                  }
                }
              }
              JOINT lPinky1
              {
                OFFSET 8.27202 -0.0477905 -0.4584
                CHANNELS 3 Zrotation Xrotation Yrotation
                JOINT lPinky2
                {
                  OFFSET 1.82734 -0.647385 -0.700984
                  CHANNELS 3 Zrotation Xrotation Yrotation
                  End Site
                  {
                    OFFSET 1.69225 -0.51767 -0.607171
                  }
                }
              }
            }
          }
        }
      }
    }
  }
  JOINT rButtock
  {
    OFFSET -8.77824 4.35084 1.2192
    CHANNELS 3 Zrotation Xrotation Yrotation
    JOINT rThigh
    {
      OFFSET 0 -1.70687 -2.19456
      CHANNELS 3 Zrotation Xrotation Yrotation
      JOINT rShin
      {
        OFFSET 0 -36.8199 0.73152
        CHANNELS 3 Zrotation Xrotation Yrotation
        JOINT rFoot
        {
          OFFSET 0.73152 -45.1104 -5.12064
          CHANNELS 3 Zrotation Xrotation Yrotation
          End Site
          {
            OFFSET -1.1221 -3.69964 12.103
          }
        }
      }
    }
  }
  JOINT lButtock
  {
    OFFSET 8.77824 4.35084 1.2192
    CHANNELS 3 Zrotation Xrotation Yrotation
    JOINT lThigh
    {
      OFFSET 0 -1.70687 -2.19456
      CHANNELS 3 Zrotation Xrotation Yrotation
      JOINT lShin
      {
        OFFSET 0 -36.8199 0.73152
        CHANNELS 3 Zrotation Xrotation Yrotation
        JOINT lFoot
        {
          OFFSET -0.73152 -45.1104 -5.12064
          CHANNELS 3 Zrotation Xrotation Yrotation
          End Site
          {
            OFFSET 1.1221 -3.69964 12.103
          }
        }
      }
    }
  }
}
MOTION
Frames:	6
Frame Time:	0.00833333
-5.33281 85.1388 129.87 0.0 0.0 0.0 0.410575 -0.00336393 0.0117802 0.113455 -0.00539468 0.0196586 8.39838e-15 7.95139e-16 -9.31803e-17 2.52146e-14 9.54166e-15 -2.59352e-16 -0.0 0.0 0.0 -0.0 0.0 0.0 4.27275e-15 1.2424e-17 4.96962e-17 9.02422e-14 2.36057e-16 5.96354e-16 1.52642e-12 -4.40507e-13 -4.45278e-14 1.73814e-11 5.15697e-13 -1.27222e-13 4.10162e-11 1.6199e-13 -3.78486e-13 7.08274e-11 2.76708e-13 -6.64736e-13 4.10228e-11 1.62208e-13 -3.88028e-13 7.73091 5.47488 0.417314 4.10154e-11 1.61612e-13 -3.81667e-13 2.90554 0.965183 0.102902 4.10179e-11 1.6191e-13 -3.85642e-13 10.2786 0.731801 0.0259123 4.10107e-11 1.64196e-13 -3.81667e-13 2.22167 -0.733487 -0.20892 4.17587e-15 1.2424e-17 -1.49089e-16 8.63311e-14 2.36057e-16 -1.59028e-15 1.51439e-12 4.65951e-13 -2.54444e-14 1.73927e-11 -3.99358e-13 -1.46306e-13 4.10175e-11 1.44142e-13 -3.94389e-13 7.08318e-11 2.41722e-13 -6.67916e-13 4.1014e-11 1.4551e-13 -3.81667e-13 -7.73091 5.47488 -0.417314 4.10179e-11 1.43622e-13 -3.94389e-13 -2.90554 0.965183 -0.102902 4.10083e-11 1.44019e-13 -3.85642e-13 -10.2786 0.731801 -0.0259123 4.10254e-11 1.47101e-13 -3.91208e-13 -2.22167 -0.733487 0.20892 -2.03217e-16 0.0 -3.88251e-19 0.7709 -4.17179 -0.0656917 -0.00265697 2.00547 -0.0182891 -0.462135 2.16691 0.096142 2.03217e-16 0.0 3.88251e-19 -0.14294 -2.55997 0.0260621 0.00716107 -0.914059 0.0621531 0.453468 3.47456 -0.121181
-7.2145 83.3914 123.88 172.169 1.5241 -157.698 -3.01469 -6.82004 -1.3512 1.69182 4.17183 -0.452368 -2.31743 4.72631 0.083545 4.31497 -4.78634 1.13134 -0.0 0.0 0.0 -0.0 0.0 0.0 -5.87162e-14 -2.00191e-13 -4.43721e-14 22.3636 2.7191 -1.14841 -4.0683 -1.81879 6.3869 0.000757629 -0.805101 -0.113122 1.07704e-09 -1.32169e-09 1.4957e-09 1.86175e-09 -2.28445e-09 2.58523e-09 1.07704e-09 -1.32169e-09 1.49569e-09 7.73091 5.47488 0.417314 1.07704e-09 -1.32169e-09 1.4957e-09 2.90554 0.965183 0.102902 1.07704e-09 -1.32169e-09 1.49569e-09 10.2786 0.731801 0.0259123 1.07703e-09 -1.32169e-09 1.4957e-09 2.22167 -0.733487 -0.20892 -5.87884e-14 -2.00193e-13 -4.46004e-14 -16.0659 4.97166 -1.95127 6.88913 -3.94057 -9.73607 0.000884558 1.03958 -0.146448 -3.56171e-10 -1.51529e-09 -8.97472e-11 -6.18201e-10 -2.62071e-09 -1.54546e-10 -3.56175e-10 -1.51529e-09 -8.97356e-11 -7.73091 5.47488 -0.417314 -3.5617e-10 -1.51529e-09 -8.97482e-11 -2.90554 0.965183 -0.102902 -3.56179e-10 -1.51529e-09 -8.97427e-11 -10.2786 0.731801 -0.0259123 -3.56163e-10 -1.51529e-09 -8.97494e-11 -2.22167 -0.733487 0.20892 -2.03217e-16 0.0 -3.88251e-19 -0.676845 -11.031 1.21464 0.000740626 4.08051 0.0349221 -0.416966 -2.25769 -0.941841 2.03217e-16 0.0 3.88251e-19 0.334881 -11.1355 -1.27536 0.011103 4.65345 -0.0351828 0.366285 1.84152 0.191149
-7.02515 83.4573 124.228 172.535 0.5883 -157.108 -7.04231 -13.9886 -2.86427 3.44993 8.58418 -0.961071 -4.80291 9.70365 0.176589 9.10656 -9.84438 2.36182 -0.0 0.0 0.0 -0.0 0.0 0.0 -1.3321e-13 -4.31555e-13 -9.73206e-14 46.1031 5.65081 -2.34961 -7.91194 -3.65245 13.1302 -0.00233144 -1.7167 -0.241295 2.30029e-09 -2.8698e-09 3.22362e-09 3.97652e-09 -4.96039e-09 5.57163e-09 2.30029e-09 -2.8698e-09 3.22362e-09 7.73091 5.47488 0.417314 2.30029e-09 -2.8698e-09 3.22362e-09 2.90554 0.965183 0.102902 2.30029e-09 -2.8698e-09 3.22362e-09 10.2786 0.731801 0.0259123 2.30029e-09 -2.8698e-09 3.22362e-09 2.22167 -0.733487 -0.20892 -1.33255e-13 -4.31557e-13 -9.75815e-14 -32.6219 10.3104 -4.08682 12.7519 -7.74363 -20.1964 0.00951484 1.99603 -0.281676 -8.03685e-10 -3.24914e-09 -2.06694e-10 -1.39472e-09 -5.61958e-09 -3.56035e-10 -8.03689e-10 -3.24915e-09 -2.06684e-10 -7.73091 5.47488 -0.417314 -8.03685e-10 -3.24915e-09 -2.06696e-10 -2.90554 0.965183 -0.102902 -8.03692e-10 -3.24915e-09 -2.06694e-10 -10.2786 0.731801 -0.0259123 -8.03677e-10 -3.24915e-09 -2.06702e-10 -2.22167 -0.733487 0.20892 -2.03217e-16 0.0 -3.88251e-19 -1.89853 -18.2494 2.65098 4.96709e-05 6.27225 0.0915322 -0.542475 -6.93416 -2.05624 2.03217e-16 0.0 3.88251e-19 0.39002 -20.2034 -2.75984 0.0361302 10.5816 -0.141365 0.291708 0.112705 0.531286
-6.82212 83.5145 124.597 172.952 -0.2381 -156.457 -10.8925 -20.4057 -4.32005 5.05927 12.5229 -1.42678 -6.99476 14.1788 0.257631 13.5271 -14.3363 3.49102 -0.0 0.0 0.0 -0.0 0.0 0.0 -1.84694e-13 -6.00599e-13 -1.33216e-13 67.4204 8.14412 -3.47645 -11.0095 -5.18572 19.2328 -0.00727162 -2.41527 -0.339635 3.14908e-09 -3.96539e-09 4.48786e-09 5.44358e-09 -6.85391e-09 7.75701e-09 3.14908e-09 -3.96539e-09 4.48785e-09 7.73091 5.47488 0.417314 3.14908e-09 -3.96539e-09 4.48786e-09 2.90554 0.965183 0.102902 3.14908e-09 -3.96539e-09 4.48786e-09 10.2786 0.731801 0.0259123 3.14907e-09 -3.96539e-09 4.48786e-09 2.22167 -0.733487 -0.20892 -1.84717e-13 -6.00603e-13 -1.33503e-13 -47.1539 14.8446 -6.03387 16.7881 -10.4577 -29.6794 0.0186165 3.11865 -0.439922 -1.15055e-09 -4.54616e-09 -2.68453e-10 -1.99627e-09 -7.86261e-09 -4.62303e-10 -1.15055e-09 -4.54617e-09 -2.68443e-10 -7.73091 5.47488 -0.417314 -1.15055e-09 -4.54617e-09 -2.68456e-10 -2.90554 0.965183 -0.102902 -1.15055e-09 -4.54617e-09 -2.68457e-10 -10.2786 0.731801 -0.0259123 -1.15054e-09 -4.54617e-09 -2.68466e-10 -2.22167 -0.733487 0.20892 -2.03217e-16 0.0 -3.88251e-19 -2.57116 -24.7014 4.08163 -0.00413257 8.23057 0.142525 -0.814325 -11.0922 -3.07294 2.03217e-16 0.0 3.88251e-19 -0.0146348 -28.2266 -4.32071 0.0772962 15.7883 -0.238488 0.245304 -1.42439 0.815318
-6.65191 83.5469 124.847 173.438 -0.708 -155.886 -13.5547 -24.9904 -5.40397 6.1457 15.2809 -1.75592 -8.42008 17.3987 0.301599 16.5962 -17.4351 4.2728 -0.0 0.0 0.0 -0.0 0.0 0.0 -1.78657e-13 -6.13845e-13 -1.26477e-13 82.4454 9.55356 -4.38569 -13.0533 -6.21528 23.6679 -0.00817906 -2.58131 -0.363028 3.06169e-09 -3.92966e-09 4.59288e-09 5.29136e-09 -6.79138e-09 7.93983e-09 3.06169e-09 -3.92966e-09 4.59287e-09 7.73091 5.47488 0.417314 3.06169e-09 -3.92966e-09 4.59288e-09 2.90554 0.965183 0.102902 3.06169e-09 -3.92966e-09 4.59288e-09 10.2786 0.731801 0.0259123 3.06169e-09 -3.92966e-09 4.59288e-09 2.22167 -0.733487 -0.20892 -1.7867e-13 -6.13849e-13 -1.26775e-13 -57.4292 17.4416 -7.31664 18.9808 -11.7814 -36.2595 0.026669 4.65663 -0.655906 -1.24578e-09 -4.75109e-09 -1.92242e-10 -2.16039e-09 -8.21603e-09 -3.30516e-10 -1.24579e-09 -4.75109e-09 -1.92233e-10 -7.73091 5.47488 -0.417314 -1.24578e-09 -4.7511e-09 -1.92245e-10 -2.90554 0.965183 -0.102902 -1.24579e-09 -4.7511e-09 -1.92249e-10 -10.2786 0.731801 -0.0259123 -1.24577e-09 -4.7511e-09 -1.92258e-10 -2.22167 -0.733487 0.20892 -2.03217e-16 0.0 -3.88251e-19 -2.5915 -29.2807 5.229 -0.00878992 9.60535 0.178434 -1.10207 -13.9692 -3.78742 2.03217e-16 0.0 3.88251e-19 -0.619235 -33.6916 -5.67128 0.115193 19.1917 -0.303475 0.228737 -2.48248 0.958614
-6.57187 83.5742 125.01 173.871 -0.4314 -155.381 -14.1388 -27.0858 -5.78136 6.41872 16.3957 -1.87033 -8.75351 18.8835 0.289971 17.5744 -18.6087 4.50187 -0.0 0.0 0.0 -0.0 0.0 0.0 -7.13657e-14 -3.61563e-13 -4.41644e-14 88.5862 9.34511 -5.01196 -13.9863 -6.72841 25.7735 -0.00106999 -1.8994 -0.26699 1.3309e-09 -1.91996e-09 2.71438e-09 2.29629e-09 -3.31563e-09 4.69646e-09 1.33091e-09 -1.91996e-09 2.71437e-09 7.73091 5.47488 0.417314 1.3309e-09 -1.91996e-09 2.71438e-09 2.90554 0.965183 0.102902 1.3309e-09 -1.91996e-09 2.71438e-09 10.2786 0.731801 0.0259123 1.3309e-09 -1.91996e-09 2.71439e-09 2.22167 -0.733487 -0.20892 -7.13908e-14 -3.61567e-13 -4.44447e-14 -62.1003 17.3994 -7.53167 19.6234 -12.0448 -38.5556 0.0480684 6.76236 -0.954007 -9.25129e-10 -3.11168e-09 1.34737e-10 -1.6014e-09 -5.3782e-09 2.339e-10 -9.25135e-10 -3.11168e-09 1.34748e-10 -7.73091 5.47488 -0.417314 -9.25129e-10 -3.11169e-09 1.34735e-10 -2.90554 0.965183 -0.102902 -9.25135e-10 -3.11169e-09 1.34731e-10 -10.2786 0.731801 -0.0259123 -9.25121e-10 -3.11169e-09 1.34721e-10 -2.22167 -0.733487 0.20892 -2.03217e-16 0.0 -3.88251e-19 -2.0364 -31.3025 5.79708 -0.0104276 10.1738 0.192552 -1.24987 -15.0619 -4.02966 2.03217e-16 0.0 3.88251e-19 -0.94083 -35.6249 -6.39865 0.128419 20.0721 -0.315872 0.238287 -2.87275 0.912193
